<mxfile host="app.diagrams.net" modified="2020-11-02T03:27:15.889Z" agent="5.0 (Macintosh; Intel Mac OS X 10_15_7) AppleWebKit/537.36 (KHTML, like Gecko) Chrome/86.0.4240.111 Safari/537.36" etag="d-Bi0i22Bi2niy1CAi-Q" version="13.8.8" type="github">
  <diagram name="Page-1" id="099fd60b-425b-db50-ffb0-6b813814b670">
    <mxGraphModel dx="701" dy="455" grid="1" gridSize="10" guides="1" tooltips="1" connect="1" arrows="1" fold="1" page="1" pageScale="1" pageWidth="850" pageHeight="1100" background="#ffffff" math="0" shadow="0">
      <root>
        <mxCell id="0" />
        <mxCell id="1" parent="0" />
      </root>
    </mxGraphModel>
  </diagram>
</mxfile>
